<svg xmlns="http://www.w3.org/2000/svg" viewBox="0 0 100 100" width="100" height="100">
  <g stroke="#2a2833" stroke-width="2.2" stroke-linejoin="round" stroke-linecap="round">
    <path d="M74 84 q14 2 12 -12" fill="#ffffff"/>
    <path d="M30 95 Q24 74 32 66 L68 66 Q76 74 70 95 Z" fill="#ffffff"/>
    <ellipse cx="42" cy="92" rx="7" ry="5" fill="#ffffff"/>
    <ellipse cx="58" cy="92" rx="7" ry="5" fill="#ffffff"/>
    <path d="M32 36 Q16 44 20 66 Q30 68 36 52 Z" fill="#211f2a"/>
    <path d="M68 36 Q84 44 80 66 Q70 68 64 52 Z" fill="#211f2a"/>
    <path d="M34 66 Q50 72 66 66" fill="none" stroke="#6750a4" stroke-width="6"/>
    <circle cx="50" cy="71" r="5.5" fill="#6750a4" stroke="#2a2833" stroke-width="1.6"/>
    <circle cx="50" cy="43" r="22" fill="#ffffff"/>
    <path d="M55 30 Q68 30 66 45 Q59 51 53 44 Q51 33 55 30 Z" fill="#211f2a" stroke="none"/>
    <ellipse cx="50" cy="52" rx="13" ry="10" fill="#ffffff"/>
    <ellipse cx="50" cy="49" rx="4.2" ry="3.4" fill="#211f2a" stroke="none"/>
  </g>
  <!-- brazo levantado con llave ajustable -->
  <path d="M69 67 Q80 60 85 49" fill="none" stroke="#2a2833" stroke-width="5" stroke-linecap="round"/>
  <g transform="translate(85 49) rotate(24)" stroke="#2a2833" stroke-width="2" stroke-linejoin="round" stroke-linecap="round">
    <rect x="-2.5" y="-1" width="5" height="15" rx="2.5" fill="#b9bec7"/>
    <path d="M-5 -8 h10 v4 h-3 v3.5 h-4 v-3.5 h-3 z" fill="#b9bec7"/>
  </g>
  <!-- ojo abierto + guiño -->
  <circle cx="41" cy="42" r="3.1" fill="#211f2a"/>
  <circle cx="42" cy="41" r="1" fill="#ffffff"/>
  <path d="M55 43 q4 -4 8 0" stroke="#2a2833" stroke-width="2.4" fill="none" stroke-linecap="round"/>
  <path d="M44 57 q6 5 12 0" stroke="#2a2833" stroke-width="2.2" fill="none" stroke-linecap="round"/>
  <!-- casco de ingeniero -->
  <g stroke="#2a2833" stroke-width="2.2" stroke-linejoin="round" stroke-linecap="round">
    <path d="M22 34 Q50 40 78 34 Q79 30 74 30.5 Q50 35 26 30.5 Q21 30 22 34 Z" fill="#e0901c"/>
    <path d="M28 32 Q29 14 50 13 Q71 14 72 32 Q50 36 28 32 Z" fill="#f6b62b"/>
    <path d="M42 16 Q41 25 40.5 31" fill="none" stroke-width="1.5" opacity="0.4"/>
    <path d="M58 16 Q59 25 59.5 31" fill="none" stroke-width="1.5" opacity="0.4"/>
    <ellipse cx="50" cy="14.5" rx="4.4" ry="2.6" fill="#f6b62b"/>
  </g>
</svg>
